<mxfile host="app.diagrams.net" agent="Mozilla/5.0 (Windows NT 10.0; Win64; x64) AppleWebKit/537.36 (KHTML, like Gecko) Chrome/132.0.0.0 Safari/537.36" version="26.0.10">
  <diagram name="Page-1" id="v3wMHnHAUpqD0Wh_0gUb">
    <mxGraphModel dx="1120" dy="426" grid="1" gridSize="10" guides="1" tooltips="1" connect="1" arrows="1" fold="1" page="1" pageScale="1" pageWidth="827" pageHeight="1169" math="0" shadow="0">
      <root>
        <mxCell id="0" />
        <mxCell id="1" parent="0" />
        <mxCell id="hS9t82RAx5mJK3vD29VK-1" value="SystemStats&lt;div&gt;&lt;br&gt;&lt;div&gt;&lt;div&gt;&amp;nbsp; &amp;nbsp; &amp;nbsp; CPUUsage&amp;nbsp; &amp;nbsp;&lt;/div&gt;&lt;div&gt;AvgLoad&lt;/div&gt;&lt;div&gt;&lt;span style=&quot;white-space: normal;&quot;&gt;&lt;span style=&quot;white-space:pre&quot;&gt;&#x9;&lt;/span&gt;MemoryUsage&amp;nbsp; &amp;nbsp; &amp;nbsp;&lt;/span&gt;&lt;/div&gt;&lt;div&gt;&lt;span style=&quot;white-space: normal;&quot;&gt;&lt;span style=&quot;white-space:pre&quot;&gt;&#x9;&lt;/span&gt;TotalMemory&amp;nbsp; &amp;nbsp; &amp;nbsp;&lt;/span&gt;&lt;/div&gt;&lt;div&gt;&lt;span style=&quot;white-space: normal;&quot;&gt;&lt;span style=&quot;white-space:pre&quot;&gt;&#x9;&lt;/span&gt;ActiveConnCount&amp;nbsp;&lt;/span&gt;&lt;/div&gt;&lt;div&gt;&lt;span style=&quot;white-space: normal;&quot;&gt;&lt;span style=&quot;white-space:pre&quot;&gt;&#x9;&lt;/span&gt;LastUpdated&lt;/span&gt;&lt;/div&gt;&lt;/div&gt;&lt;/div&gt;" style="rounded=0;whiteSpace=wrap;html=1;" vertex="1" parent="1">
          <mxGeometry x="130" y="110" width="230" height="160" as="geometry" />
        </mxCell>
        <mxCell id="hS9t82RAx5mJK3vD29VK-4" value="" style="edgeStyle=orthogonalEdgeStyle;rounded=0;orthogonalLoop=1;jettySize=auto;html=1;" edge="1" parent="1" source="hS9t82RAx5mJK3vD29VK-2" target="hS9t82RAx5mJK3vD29VK-1">
          <mxGeometry relative="1" as="geometry" />
        </mxCell>
        <mxCell id="hS9t82RAx5mJK3vD29VK-2" value="System Stats collector&lt;br&gt;&lt;br&gt;Check Threshold and alert" style="rounded=0;whiteSpace=wrap;html=1;" vertex="1" parent="1">
          <mxGeometry x="185" y="330" width="125" height="80" as="geometry" />
        </mxCell>
        <mxCell id="hS9t82RAx5mJK3vD29VK-3" value="ProcessMetrics&#xa;    Name&#xa;    PID      &#xa;    CPUUsage &#xa;    MemUsage" style="rounded=0;whiteSpace=wrap;html=1;" vertex="1" parent="1">
          <mxGeometry x="440" y="110" width="200" height="130" as="geometry" />
        </mxCell>
        <mxCell id="hS9t82RAx5mJK3vD29VK-6" value="" style="edgeStyle=orthogonalEdgeStyle;rounded=0;orthogonalLoop=1;jettySize=auto;html=1;" edge="1" parent="1" target="hS9t82RAx5mJK3vD29VK-3">
          <mxGeometry relative="1" as="geometry">
            <mxPoint x="540" y="340" as="sourcePoint" />
          </mxGeometry>
        </mxCell>
        <mxCell id="hS9t82RAx5mJK3vD29VK-8" value="&lt;span style=&quot;text-align: left;&quot;&gt;Process Metrics Collector&lt;/span&gt;&lt;br style=&quot;padding: 0px; margin: 0px; text-align: left;&quot;&gt;&lt;span style=&quot;text-align: left;&quot;&gt;check threshold and alert&lt;/span&gt;" style="rounded=0;whiteSpace=wrap;html=1;" vertex="1" parent="1">
          <mxGeometry x="490" y="340" width="120" height="60" as="geometry" />
        </mxCell>
      </root>
    </mxGraphModel>
  </diagram>
</mxfile>
